<?xml version="1.0"?>
<svg width="1728" height="1728" xmlns="http://www.w3.org/2000/svg" xmlns:svg="http://www.w3.org/2000/svg" preserveAspectRatio="xMidYMid meet">
 <metadata>Created by potrace 1.12, written by Peter Selinger 2001-2015</metadata>
 <g>
  <title>Layer 1</title>
  <path fill="#0000ff" id="svg_3" d="m309.700012,329.599976c-0.100006,0.200012 -2.200012,0.600006 -4.600006,0.899994c-21.600006,2.700012 -49.100006,21.200012 -69.900009,47c-3.199997,3.800018 -5.899994,7.200012 -6.199997,7.5c-1.599991,1.400024 -8.699997,12.100006 -15,22.600006c-37.5,61.800018 -64.699997,153.799988 -78,264.400024c-8.599998,72.200012 -9.199997,166.399963 -1.399994,244c9.300003,93.599976 31.599991,181.900024 61.800003,245.099976c12.699997,26.599976 31.299988,56.099976 43.799988,69.400024c2,2.199951 5.200012,5.699951 7.100006,7.699951c4.699997,5.100098 22.000015,18.600098 28.000015,21.800049c8,4.199951 9.399994,4.900024 12.699982,6.300049c1.899994,0.799927 4.600006,2 6,2.599976c1.399994,0.5 4.100006,1.299927 6,1.599976c1.899994,0.400024 5.5,1 8,1.5c9.600006,1.800049 34.200012,-0.699951 38.5,-4c0.600006,-0.400024 4.200012,-2.099976 8.100006,-3.800049c19.299988,-8.199951 45,-32 60.899994,-56.399902c2.899994,-4.600098 6.200012,-9.400024 7.300018,-10.800049c3.5,-4.5 19.299988,-34.699951 23.599976,-45c1,-2.5 3.300018,-7.900024 5.100006,-12c5.5,-12.699951 15.600006,-40.099976 17.899994,-48.599976c0.800018,-2.700073 3,-10.5 5.100006,-17.400024c3.5,-11.900024 5.899994,-21.300049 9.100006,-34.5c0.799988,-3.300049 1.600006,-6.699951 1.799988,-7.5c0.300018,-0.800049 1.200012,-5.300049 2.100006,-10c0.899994,-4.700012 2,-10.100037 2.5,-12c0.899994,-3.299988 3.399994,-17.900024 6.600006,-37.5c2.100006,-13.100037 2.100006,-12.799988 3.799988,-28c0.900024,-7.700012 2,-16.700012 2.600006,-20c0.5,-3.299988 1.399994,-12.5 2.100006,-20.5c0.600006,-8 1.299988,-16.799988 1.5,-19.5c1.700012,-20.100037 2.399994,-43 2.399994,-81.5c0,-38.900024 -0.5,-55.299988 -2.5,-85.5c-1.100006,-17.700012 -5.799988,-60.799988 -8.100006,-75c-7.899994,-49.299988 -15,-83.600037 -22.299988,-108.5c-9.5,-32.300018 -15.700012,-50.400024 -23.700012,-69.900024c-9.599976,-23.399994 -25.899994,-54.799988 -34.899994,-67.600006c-21.699982,-30.5 -39.5,-47.5 -61.199982,-58.399994c-12.300018,-6.100006 -25.5,-9.299988 -38,-9c-4.5,0.100006 -8.400024,0.300018 -8.600006,0.5zm25.100006,4.300018c20.5,5.899994 34.799988,14.699982 52.399994,32.399994c8.799988,8.799988 23.699982,27.899994 33.199982,42.600006c10.900024,16.799988 23.200012,43.099976 36.200012,77.899994c5.899994,15.5 6.600006,18.199982 6.200012,22.899994c-0.300018,3.100006 -1.200012,6.100006 -2.100006,7.000031c-1.5,1.5 -1.899994,1.399963 -5.200012,-2.100037c-4.299988,-4.5 -10.399994,-14.899994 -13.799988,-23.399994c-2.700012,-6.600006 -4.700012,-17.799988 -4.700012,-26.5c0,-6.100006 -1.5,-12.200012 -3.899994,-15.399994c-0.899994,-1.200012 -3.799988,-3 -6.399994,-3.899994c-5.399994,-1.800018 -7,-3.800018 -9.200012,-11.100006c-1.799988,-6 -5.399994,-11.700012 -7.899994,-12.100006c-0.899994,-0.200012 -2.600006,0.399994 -3.5,1.200012c-2.100006,1.899994 -5.5,1 -8.299988,-2.100006c-2.5,-2.700012 -7,-13 -6.600006,-15c0.199982,-1 2.100006,-2.700012 4.299988,-3.899994c4.800018,-2.5 4.899994,-4.600006 1.200012,-12.900024c-2.700012,-5.799988 -4.600006,-7.199982 -10.100006,-8c-4.600006,-0.5 -12.5,-4.5 -17.600006,-8.699982c-2.199982,-1.800018 -7.799988,-7.700012 -12.5,-13.100006c-4.699982,-5.299988 -9.199982,-9.700012 -9.899994,-9.700012c-0.799988,0 -2.899994,1.800018 -4.600006,4c-3.899994,5 -6.600006,6.600006 -8.399994,5c-1.5,-1.099976 -7,-17.099976 -8.100006,-23.299988c-0.899994,-4.5 -0.399994,-4.5 9.300018,-1.799988zm-50.800018,14.099976c2.600006,1.300018 5.700012,1.900024 9.899994,1.900024c6.700012,-0.100006 13.400024,2.5 13.900024,5.399994c0.299988,1.199982 -1,2.399994 -4.700012,4.100006c-6.700012,3.099976 -8.100006,4.399994 -8.100006,7.5c0.100006,3.099976 3.300018,12.799988 4.800018,14.299988c0.5,0.5 4.5,1 8.799988,1c9.5,0 13.299988,1.299988 22.100006,7.299988c3.699982,2.600006 8,4.900024 9.399994,5.200012c1.5,0.299988 3.799988,1.600006 5.100006,3c2.199982,2.399994 2.299988,2.899994 2,18.299988c-0.399994,19.600006 0.600006,24.100006 9.100006,39.900024c3.399994,6.399994 6.5,12.399994 6.899994,13.399994c0.600006,1.5 -0.600006,2.399994 -7.399994,5.699982c-4.5,2.200012 -8.700012,4 -9.300018,4c-2,0 -5.600006,-4.599976 -13,-16.699982c-14.399994,-23.300018 -16.100006,-25.600006 -19.899994,-28.5c-3.899994,-2.800018 -18.200012,-7.800018 -22.399994,-7.800018c-3.200012,0 -4.5,3.5 -5,14.100006c-0.399994,9.5 -0.399994,9.600006 2.299988,11.700012c1.899994,1.5 4.200012,2.199982 7.100006,2.199982c4.899994,0 7.100006,-1.799988 9,-7.299988c1.200012,-3.5 3.899994,-4.600006 7.399994,-2.700012c2.899994,1.5 7.600006,11.700012 9.600006,20.800018c1.299988,5.600006 1.5,10.799988 1.200012,21.600006c-0.600006,19.699982 -2.900024,23.5 -13,22.199982c-8.100006,-1.100006 -9.5,-2 -10.300018,-6.5c-0.899994,-5.100006 -1.799988,-5.699982 -4.600006,-2.899994c-4.399994,4.700012 -5.899994,12.799988 -2.299988,12.799988c2.899994,0 1.100006,3.700043 -3.799988,7.300018c-6,4.599976 -9.400024,11.299988 -13.400024,26.200012c-3.799988,14.099976 -3.599976,31.599976 0.400024,35.099976c9.899994,8.600037 12.799988,10.5 16.199982,10.400024c1.899994,-0.100037 4,-0.200012 4.700012,-0.100037c1.199982,0.100037 2.299988,4.300049 4.799988,18.5c0.899994,4.800049 2.300018,10.600037 3.200012,12.700012c2.899994,7.400024 3.600006,3.5 2.899994,-16.299988c-0.600006,-16.299988 -0.5,-19.599976 0.899994,-23.900024c2,-6 1.399994,-14.399963 -1.5,-21.899963c-2.600006,-6.600037 -3.399994,-13.799988 -2.100006,-18.400024c0.800018,-3.099976 0.700012,-4.599976 -0.599976,-7.5c-0.900024,-2 -2,-4.399963 -2.5,-5.399963c-1.200012,-2.800049 2.399994,-5.700012 7.299988,-5.700012c5.700012,0 7.399994,1.200012 12.399994,9c2.399994,3.700012 4.700012,7 5.200012,7.299988c2.100006,1.299988 3.600006,-1.400024 4.199982,-7.400024c0.600006,-6.199951 0.600006,-6.299988 2.200012,-3.899963c0.799988,1.399963 3.100006,5.599976 5,9.5c2.5,5.200012 5.600006,9.099976 12.100006,15.5c4.799988,4.700012 9.399994,10.200012 10.199982,12.200012c1,2.299988 1.600006,6.699951 1.600006,11.399963c0,6.600037 -0.699982,9.799988 -5.100006,22.799988c-4.099976,11.900024 -5.199982,16.300049 -5.099976,21c0.099976,3.300049 0.599976,6.400024 1.099976,6.900024c2.300018,2.299988 8,-11.200012 14.5,-34.099976c2.300018,-8 4.600006,-14.700012 5.100006,-14.800049c1.100006,-0.299988 13.5,14.800049 13.5,16.400024c0,0.5 -1.100006,1.700012 -2.399994,2.599976c-3.600006,2.300049 -9.5,8.600037 -11.399994,12.100037c-1.300018,2.299988 -1.700012,5.799988 -1.700012,15l0,12l-4.100006,6.200012c-3.599976,5.399963 -4.299988,7.199951 -4.899994,13.5c-1.100006,12.599976 -2.899994,15.799988 -8.899994,15.799988c-2.799988,0 -4,1.700012 -6.100006,8.799988c-1.699982,5.700012 -1.899994,9.200012 -1,15.299988c0.700012,4.200012 0.300018,5.299988 -4.899994,15.5c-3.600006,7.100037 -6.100006,13.5 -7.100006,18.400024c-0.799988,4.099976 -2.299988,9.599976 -3.199982,12.200012c-1.5,4.299988 -1.5,5.299988 -0.300018,10c0.899994,3.199951 1.399994,9.699951 1.399994,16.299988c-0.099976,10.599976 -0.299988,11.399963 -5.099976,24.5c-5,13.299988 -8.600006,24.200012 -9.600006,28.899963c-0.300018,1.300049 0.5,9.800049 1.899994,19c2.799988,18.700012 3.200012,34.300049 1.100006,41.100037l-1.399994,4.5l-1.200012,-3c-2.299988,-5.5 -4.899994,-16.900024 -6,-26.5c-1.200012,-9.799988 -3,-18 -3.799988,-18c-1.600006,0 -19.100006,7.5 -20.5,8.799988c-1.200012,1 -1.800018,3 -1.800018,5.900024c0,2.299988 -0.299988,4.299988 -0.699982,4.299988c-0.5,-0.100037 -2.100006,-1.900024 -3.600006,-4.100037c-2.5,-3.699951 -3.200012,-4.099976 -5.899994,-3.5l-3.100006,0.600037l0.600006,-9.299988c0.399994,-6.900024 1.399994,-12 4.099976,-20c3.100006,-9.200012 3.600006,-12 3.600006,-20c0,-5 -0.5,-12.600037 -1.100006,-16.700012c-1.099976,-6.799988 -0.899994,-8.299988 1.100006,-16c1.300018,-5.100037 2.600006,-14.200012 3.100006,-23c0.899994,-13.299988 1.200012,-14.700012 3.600006,-17.900024c1.399994,-1.799988 3.399994,-3.599976 4.299988,-3.799988c1.899994,-0.5 3.600006,-9.200012 4.5,-23.799988c1.200012,-17.299988 7.800018,-45.5 10.700012,-45.5c1.699982,0 10.799988,5.200012 10.799988,6.200012c0,0.5 0.5,0.599976 1.100006,0.199951c0.799988,-0.5 0.600006,-1 -0.5,-1.599976c-0.899994,-0.5 -1.600006,-1.900024 -1.600006,-3.200012c0,-1.899963 -0.399994,-2.200012 -2.399994,-1.899963c-3.299988,0.699951 -6.600006,-1.300049 -6.600006,-4c-0.100006,-2.100037 -0.100006,-2.100037 -1.399994,0.299988c-0.799988,1.399963 -2.799988,7 -4.600006,12.5c-1.699982,5.5 -3.399994,10.700012 -3.699982,11.5c-1.5,4.299988 -2.700012,-5.299988 -2.900024,-23.299988c-0.299988,-19.100037 -1.399994,-31.800049 -3.299988,-38.200012c-1.399994,-4.600037 -1.299988,-0.799988 0.399994,10.099976c0.800018,5.5 1.5,16.900024 1.5,25.900024c0,10.299988 0.600006,18.5 1.5,23c1.5,6.799988 1.200012,17.200012 -0.5,20.299988c-0.899994,1.700012 -5.399994,-10.900024 -8.699982,-24.299988c-2.400024,-9.900024 -4.600006,-13.799988 -8.5,-15.100037c-1.5,-0.399963 -1.800018,-1.599976 -1.800018,-7.5c0,-8.699951 -0.899994,-10.5 -5.699982,-11.399963c-13,-2.400024 -16.400009,-12.900024 -10.300018,-31.5c2.5,-7.700012 3,-11.100037 3.399994,-21.799988c0.300018,-11.100037 0.700012,-13.5 3.100006,-19.200012c2.300018,-5.299988 2.800018,-8.100037 2.899994,-15.5c0.100006,-8.700012 0.300018,-9.299988 5.100006,-18.799988c6.600006,-13.100037 9.600006,-16.700043 13.5,-16.200043c1.800018,0.300018 2.800018,0 2.5,-0.5c-0.399994,-0.599976 -1.699982,-1 -3.100006,-1c-1.399994,0 -2.699982,-0.699982 -3,-1.5c-0.399994,-1 -1.299988,-0.099976 -2.799988,2.800018c-1.299988,2.299988 -4.299988,8 -6.899994,12.700012c-5.800018,10.899963 -8,18.200012 -6.800018,23.299988c1.300018,5.299988 -1.099976,12.799988 -5.299988,17.400024c-2.700012,2.899963 -3.700012,3.5 -5.800003,3c-2.699997,-0.700012 -4.800003,-4.700012 -4.800003,-9.600037c-0.099991,-2.200012 -0.300003,-2 -1.5,1.400024c-0.800003,2.200012 -1.899994,4.099976 -2.5,4.299988c-0.5,0.200012 -1,0.799988 -1,1.400024c0,0.599976 0.900009,0.299988 1.900009,-0.600037c1.799988,-1.700012 2,-1.599976 2.599991,0.299988c1,3.300049 5.400009,6.200012 8.300018,5.400024l2.5,-0.599976l-0.600006,11.399963c-0.399994,8 -1.399994,14.200012 -3.399994,20.900024c-2.700012,9.5 -3.400009,17.599976 -2.100021,23.700012c0.800003,3.399963 -1,6 -11,16.599976c-3.099991,3.400024 -3.799988,3.700012 -4.799988,2.299988c-1.5,-2.200012 -3.700012,-2 -5.900009,0.400024c-1,1.099976 -1.300003,2 -0.699997,2c0.699997,0 1.199997,-0.5 1.199997,-1.100037c0,-0.699951 1,-0.899963 2.800003,-0.5c1.5,0.400024 3.899994,0.700012 5.399994,0.600037c1.700012,0 2.800003,0.599976 3.100006,1.700012c0.300003,1.199951 0.5,0.899963 0.600006,-0.800049c0.099991,-3.099976 5.5,-11.5 8.799988,-13.599976c2.199997,-1.5 2.500015,-1.400024 4.600021,0.400024c1.199982,1.199951 3.599976,2.799988 5.399994,3.699951c2.100006,1.100037 3.299988,2.5 3.600006,4.300049c0.399994,2.599976 0.399994,2.599976 0.599976,-0.5c0.100006,-3.5 0.800018,-3.900024 3.600006,-1.800049c1.600006,1.100037 1.700012,2.200012 1.200012,8c-0.600006,6.200012 -0.399994,6.900024 1.600006,8.900024c1.299988,1.200012 3.099976,2.599976 4,3.200012c1.199982,0.700012 3.5,7.299988 7.199982,20.399963c6.300018,22.300049 7.300018,28.200012 5.5,34.5c-1.399994,5.100037 -6.399994,11.100037 -8.5,10.200012c-1.199982,-0.399963 -1.5,0.900024 -1.5,7.700012c0,11.799988 -1.600006,25.799988 -4.100006,35.900024l-2.099976,8.699951l-4.700012,-3.799988c-2.5,-2.099976 -6.399994,-4.599976 -8.600006,-5.599976c-2.199982,-1 -4.600006,-2.5 -5.299988,-3.400024c-1.100006,-1.399963 -1.100006,-1.399963 -0.600006,0.200012c0.399994,1 1.5,2.200012 2.5,2.799988c1.100006,0.5 1.899994,1.700012 1.899994,2.5c0,1 0.600006,1.400024 1.399994,1.100037c1.600006,-0.600037 5.600006,2.099976 9.900024,6.799988c6.399994,7 7.899994,26.099976 3.199982,39.5c-3.100006,8.899963 -5.5,22.099976 -5.5,30c0,4.399963 -0.5,6.200012 -2.100006,8.099976c-1.199982,1.299988 -3.699982,4.700012 -5.5,7.600037c-3.099976,4.699951 -3.399994,5.899963 -3.399994,12.799988c0,4.099976 -0.399994,7.5 -0.899994,7.5c-0.899994,0 -4.199997,-9.299988 -5.5,-15c-0.300003,-1.400024 -1,-7.400024 -1.600006,-13.299988c-1.300003,-13.100037 -3,-17.700012 -8.099991,-22.100037c-3.700012,-3.099976 -4,-3.899963 -5.400009,-12.200012c-0.899994,-4.899963 -3,-12.5 -4.699997,-16.899963c-3.399994,-8.299988 -3.600006,-10.400024 -2.800003,-28c0.199997,-4.900024 -0.199997,-8.400024 -1.5,-11.5c-2.800003,-7.5 -7.399994,-24 -8.5,-30.400024c-0.899994,-5.899963 -0.899994,-5.799988 -0.399994,2.100037c0.300003,5.099976 0.199997,8.299988 -0.400009,8.299988c-1.399994,0 -5.899994,-5.5 -6.799988,-8.200012c-1.5,-5 -6.300003,-10.599976 -10.5,-12.200012l-4.200012,-1.700012l0.800003,-10.199951c0.699997,-11.100037 2.5,-21.800049 5.699997,-34.200012c3.5,-13.799988 1.5,-49.100037 -3.899994,-66.900024c-0.5,-1.799988 -0.600006,-1.799988 -1.800003,0.5l-1.300003,2.400024l-0.5,-2.5c-0.299988,-1.400024 -1.699997,-7.600037 -3.199997,-13.900024c-2.399994,-10.099976 -2.599991,-12.5 -2,-21.200012c0.5,-7.099976 0.400009,-9.899963 -0.399994,-9.899963c-0.600006,0 -3.400009,-2.400024 -6.100006,-5.299988c-4.800003,-5 -5.099991,-5.100037 -6.5,-3.300049c-0.800003,1.100037 -1.5,2.900024 -1.5,4c0,3 -0.899994,4 -6.899994,8c-6.100006,4.100037 -6.100006,4.100037 -6.100006,2.100037c0,-0.799988 0.400009,-1.5 1,-1.5c0.5,0 2.300003,-2 4,-4.5c1.699997,-2.5 4,-5.400024 5.100006,-6.400024c1.899994,-1.799988 1.899994,-1.799988 0,-4.299988c-3.100006,-3.799988 -3.400009,-7.099976 -2.100006,-17.599976c1.600006,-12.5 2.100006,-13.600037 7,-16.800049c4.699997,-3.099976 5.900009,-6.399963 3.600006,-9.899994c-1.900009,-2.799988 -2,-6.599976 -0.300003,-11.5c0.899994,-2.699982 1.699997,-3.5 3.699997,-3.5c2,0 3,-1.099976 5.300003,-5.699982c2.699997,-5.399994 5.5,-7.700012 7.600006,-6.300018c0.599991,0.300018 2,3.300018 3.199997,6.600006c2.099991,5.700012 4.800003,8.899994 7.599991,8.899994c2.600006,0 1.400009,-5.699982 -2.199997,-10c-1.899994,-2.299988 -3.5,-4.799988 -3.5,-5.5c0,-2.399994 2.800003,-3.799988 6.5,-3.099976c4.699997,0.899994 8.600006,4.5 11.5,10.5c1.300003,2.799988 3,5.099976 3.800003,5.099976c0.800003,0 3.699997,1.600006 6.399994,3.600006c2.700012,2 5,3.5 5.200012,3.300018c0.199997,-0.200012 0.799988,-6.400024 1.399994,-13.700012c1,-13.200012 1,-13.299988 6.100006,-23.200012c2.799988,-5.399994 5.099991,-10.199982 5.099991,-10.5c0,-1.699982 -3.300003,2.300018 -8,9.5c-5.699997,9 -6.300003,9.5 -8,7.5c-1.800003,-2.199982 -2.599991,-1.899994 -7.599991,2.700012c-5.300003,4.899994 -6.400009,4.600006 -10.5,-2.299988c-2.800003,-4.800018 -2.700012,-4.800018 -13.100006,-3.600006c-3.199997,0.299988 -5.800003,0.299988 -5.800003,-0.100006c0,-0.399994 2,-3.399994 4.5,-6.700012c5.600006,-7.299988 10.5,-17.5 13.5,-27.5c4.900009,-16.899994 7.300003,-22.299988 12.199997,-27.699982c3.400009,-3.700012 5.200012,-6.899994 6.400009,-11c2.599991,-9.399994 6.300003,-15.200012 12.300003,-19.600006c3,-2.200012 11.400009,-10 18.499985,-17.200012c7.200012,-7.199982 13.700012,-13.199982 14.400024,-13.299988c0.699982,-0.100006 3,0.700012 5.199982,1.799988zm188.899994,189.300018c7.5,23.200012 22.400024,103.599976 26.600006,143.599976c1.200012,11.900024 -2.100006,6.5 -9.899994,-16.099976c-5.799988,-17 -20.299988,-67.700012 -21.600006,-75.900024c-1.399994,-8.399963 -1.100006,-55.399963 0.300018,-57.699951c1.299988,-2 2.399994,-0.600037 4.599976,6.099976zm-269.399994,189.5c2.800003,1.900024 5.199997,5 7.800003,9.900024c2.600006,5 4.600006,7.5 6.600006,8.399963c2.299988,1 3.299988,2.400024 4.399994,6.400024c0.800003,2.700012 1.199997,5.299988 1,5.700012c-0.800003,1.5 -8.399994,2.899963 -11.800003,2.199951c-3.5,-0.599976 -3.599991,-0.5 -5.800003,4.5c-2.199997,5 -3.699997,6.5 -3.699997,3.600037c0,-0.799988 -0.899994,-2.299988 -2,-3.200012c-1.899994,-1.599976 -2,-3 -2,-21c0,-10.599976 0.300003,-19.299988 0.800003,-19.299988c0.399994,0.099976 2.5,1.299988 4.699997,2.799988zm22,36.799988c1.699997,1.200012 2.100006,2.900024 2.300003,10.400024c0.199997,4.899963 0,10.899963 -0.600006,13.399963c-0.899994,4.100037 -0.599991,5.5 2,11.800049c3.600006,9.099976 6.600006,20.299988 7.400009,28.299988c0.599991,5.5 0.399994,6.700012 -1.900009,10.599976c-1.399994,2.400024 -4.199997,8.400024 -6.199997,13.400024c-1.899994,4.899963 -4.099991,9.299988 -4.800003,9.700012c-0.599991,0.399963 -0.899994,1 -0.5,1.299988c0.900009,0.899963 5.300003,-6.200012 6.200012,-10c0.899994,-3.5 7.099991,-14.799988 9.099991,-16.5c1,-0.799988 1.900009,-0.799988 3.400009,0c3.799988,2 6.099991,8.5 7.699997,21.5c1.399994,12.299988 4.300003,24 7,28.299988c1.100006,1.599976 1.5,6.200012 1.799988,16.5c0.300018,16.099976 2.400024,26.099976 8.100006,38.5c4.600006,9.900024 7.100006,13.200012 10,13.200012c3.399994,0 5.200012,-4 6.899994,-15.400024c0.800018,-5.200012 1.700012,-10 2.100006,-10.599976c1.100006,-1.799988 7.100006,-1.100037 9.100006,1.099976c1.700012,1.900024 2,4.299988 2.399994,23.799988c0.600006,24.300049 0.700012,24.900024 8.399994,32.100037c5.700012,5.299988 6.400024,8.200012 7.5,31.799988c1,20.200012 1.800018,22.700012 9.5,30.100037c3.100006,3 3.700012,3.299927 5.200012,2c1.600006,-1.300049 1.700012,-1.099976 1.100006,2.5c-0.800018,5 -3.200012,8.599976 -5.800018,8.599976c-3.599976,0 -12.099976,-10.599976 -18.699982,-23.5c-4.5,-8.800049 -5.300018,-11.199951 -6.300018,-19.299988c-1.099976,-9.5 -2.399994,-12 -8.199982,-15.100037c-7.200012,-3.899963 -10.200012,-7.399963 -15.200012,-17.399963c-2.600006,-5 -4.799988,-9.400024 -5.100006,-9.600037c-0.199982,-0.200012 -1.5,0.600037 -2.799988,1.799988c-1.299988,1.300049 -3.200012,2.100037 -4.200012,1.900024c-4.199982,-0.799988 -21.699997,-31.099976 -26.299988,-45.599976c-2.199997,-6.900024 -3.800003,-15.400024 -5.600006,-29.400024c-1.800003,-14.599976 -3.099991,-21.200012 -4.899994,-25.599976c-2.400009,-5.700012 -6.600006,-24.300049 -10.199997,-45c-0.900009,-5.600037 -1.900009,-10 -2.200012,-9.800049c-0.199997,0.300049 0.100006,4.700012 0.700012,9.800049c0.599991,5.099976 1.5,16 2.099991,24.299988c0.5,8.200012 1.600006,17.200012 2.400009,20c2.199997,7.399963 2.899994,13.700012 1.799988,16.399963c-0.799988,2.300049 -0.899994,2.300049 -2.5,-1.699951c-4.799988,-12 -9.799988,-49.200012 -12.699997,-94.5c-0.800003,-13.800049 -1.300003,-16.300049 -3.5,-20.5c-1.399994,-2.600037 -2.5,-6.200012 -2.399994,-8.200012l0.099991,-3.5l1.5,3.700012c0.900009,2.099976 1.900009,3.799988 2.300003,3.799988c0.400009,0 1.699997,-2.200012 2.800003,-4.900024c1.899994,-4.799988 2.199997,-5 6.399994,-5.399963c8.800003,-0.800049 11.400009,-0.600037 13.300003,0.899963zm114,159.100037c9.5,4.899963 10.899994,6.299988 10.100006,10.5c-0.799988,4.299988 -2.299988,5.699951 -7,6.5c-3.200012,0.5 -4.200012,0.099976 -8.399994,-3.400024c-3.700012,-3.099976 -5.899994,-4.099976 -10,-4.700012c-7.5,-1 -9.899994,-2.299988 -12.200012,-7.099976c-4,-8.200012 -2.699982,-8.900024 12,-6.400024c6,1 11.700012,2.700012 15.5,4.600037zm34.399994,10.699951c2,2.400024 0.200012,9.600037 -3.199982,12.700012c-3.800018,3.5 -11.200012,7.299988 -12.600006,6.5c-1.600006,-1 -1.299988,-10.299988 0.399994,-13.599976c2.100006,-4 4.5,-5.200012 13.600006,-6.900024c0.399994,0 1.200012,0.5 1.799988,1.299988zm1.400024,69.5c2.299988,8.700012 3.599976,10 8,7.800049c1.799988,-0.900024 4.5,-2.700012 6.099976,-3.900024c3.300018,-2.700012 2.5,-3.299988 9.900024,8.200012c2.299988,3.599976 4.899994,6.599976 5.799988,6.799988c0.899994,0.200012 4,-1.700012 7,-4.099976c9.200012,-7.400024 12.5,-8.300049 17.299988,-4.600037c3.300018,2.600037 5.100006,6 8.100006,15.599976c3.200012,10 3.800018,10.700073 7.899994,8.600098c3.600006,-1.900024 7.600006,-4.800049 16.5,-12c3.600006,-2.900085 7.300018,-5.300049 8.300018,-5.300049c1.399994,0 2.899994,2.200012 5.5,7.599976c3.399994,7.099976 3.5,8 3,14.700073c-1.5,20.5 -25.600006,87.099976 -45.800018,126.699951c-11.199982,22 -16.899994,30.800049 -30.599976,47.099976c-24.100006,28.800049 -50.600006,45.900024 -76.300018,49.099976c-3.699982,0.5 -3,-1.699951 6.5,-18.699951c11.5,-20.699951 14.800018,-27.900024 15.300018,-34.199951c0.5,-5.700073 0,-6.300049 -9.700012,-14.700073c-4.700012,-4 -9.899994,-15.799927 -16.600006,-37.5c-4.399994,-14.299927 -5.5,-19.099976 -5,-22c0.300018,-2 4.700012,-12.799927 9.700012,-24c4.899994,-11.299927 11.199982,-27.400024 14,-35.799927l5.100006,-15.300049l-2.200012,-4.900024c-2.700012,-6.299927 -2.700012,-11.699951 -0.100006,-29.599976c2.600006,-17.600037 2.800018,-18.100037 8,-19c3.899994,-0.700012 12.399994,-5.700012 18.399994,-11c1.600006,-1.400024 3.200012,-2.5 3.5,-2.5c0.400024,0 1.5,3.099976 2.400024,6.899963z"/>
  <path fill="#000000" id="svg_4" d="m972,156.599976c-70.700012,54.900009 -175.5,136.299988 -233,180.899994l-104.5,81.100006l0,381.400024l0,381.400024l233,180.400024l233,180.399902l0.300049,-371.699951c0.099976,-204.400024 0.099976,-538.600037 0,-742.600006l-0.300049,-371.000019l-128.5,99.700001zm112.800049,994.300049l-0.300049,352l-125.5,-93.599976c-69,-51.5 -169.399963,-126.300049 -223,-166.300049l-97.5,-72.699951l-0.299988,-370.100037l-0.200012,-370.200043l55.200012,-41.299988c70.299988,-52.5 278.200012,-207.900009 342.299988,-255.900009l49,-36.599998l0.300049,351.299995c0.099976,193.200043 0.099976,509.700043 0,703.400055z"/>
  <path fill="#0000ff" id="svg_5" d="m828.400024,330.099976c-0.200012,0.300018 -1.700012,0.600006 -3.299988,0.700012c-1.600037,0 -4,0.600006 -5.300049,1.299988c-1.299988,0.700012 -2.299988,1.100006 -2.299988,0.899994c0,-0.5 -4.700012,1 -8.5,2.700012c-18.5,8.299988 -36.700012,23.100006 -51.799988,41.799988c-3.200012,3.800018 -5.900024,7.200012 -6.200012,7.5c-1,0.900024 -12,16.800018 -12,17.300018c0,0.299988 -2.200012,4.100006 -4.899963,8.5c-9.400024,15.100006 -21.5,40.699982 -31.300049,66.199982c-28,73.000031 -46.799988,174.000031 -50.799988,273.000031c-4.700012,117 7,229.700012 33.5,321.199951c13.600037,47.100098 24.200012,74.300049 41.799988,107.300049c17.100037,31.900024 35,55.099976 54.300049,70.400024c7.099976,5.699951 23.5,16.099976 25.199951,16.099976c0.600037,0 2.300049,0.599976 3.900024,1.400024c5,2.5 7.700012,3.5 10.799988,4c1.700012,0.299927 4.100037,0.799927 5.5,1.099976c4.299988,1.099976 20.299988,1.400024 26,0.5c7.299988,-1.199951 12.200012,-2.699951 19.799988,-6.099976c3.400024,-1.599976 6.600037,-2.900024 7.100037,-2.900024c1.200012,0 16.700012,-10.5 21.099976,-14.300049c14.299988,-12.299927 27.400024,-27 36.5,-40.899902c2.900024,-4.600098 6.200012,-9.400024 7.299988,-10.800049c5.800049,-7.400024 25,-46.800049 33.5,-68.5c3.800049,-9.800049 11.900024,-32.599976 13.100037,-37.099976c0.799988,-2.700073 3,-10.5 5.099976,-17.400024c3.5,-11.900024 5.900024,-21.300049 9.100037,-34.5c0.799988,-3.300049 1.699951,-6.900024 2,-8c2.199951,-8.600037 9.299988,-47.900024 12.899963,-71c0.100037,-1.100037 1,-8.299988 1.900024,-16c0.899963,-7.700012 2.099976,-16.900024 2.599976,-20.5c0.900024,-5.700012 2.700073,-24.900024 3.5,-38c0.200073,-2.5 0.800049,-11.900024 1.400024,-21c2,-30.900024 1.300049,-110.799988 -1.400024,-148c-1.199951,-17 -6,-61.799988 -7.5,-70.5c-0.599976,-3.299988 -1.700012,-10.299988 -2.5,-15.5c-5,-33 -13.599976,-73.700012 -20.399963,-97c-8.600037,-28.900024 -15.700012,-50.100006 -22.700012,-67.500031c-10.200012,-24.899994 -26.400024,-56.5 -35.900024,-70c-21.700012,-30.5 -39.5,-47.5 -61.200012,-58.399994c-13.099976,-6.5 -25.599976,-9.299988 -39.599976,-8.899994c-5.5,0.200012 -10,0.600006 -10.299988,0.899994zm28.399963,3.800018c26.700012,7.599976 48,23.799988 70.100037,53.099976c22.099976,29.300018 33.700012,51.800018 51.700012,99.800018c5.899963,15.5 6.599976,18.199982 6.199951,22.899994c-0.299988,3.100006 -1.199951,6.100006 -2.099976,7.000031c-1.5,1.5 -1.900024,1.399963 -5.200012,-2.100037c-4.299988,-4.5 -10.399963,-14.899994 -13.799988,-23.399994c-2.700012,-6.600006 -4.700012,-17.799988 -4.700012,-26.5c0,-6.100006 -1.5,-12.200012 -3.899963,-15.399994c-0.900024,-1.200012 -3.800049,-3 -6.400024,-3.899994c-5.400024,-1.800018 -7,-3.800018 -9.200012,-11.100006c-1.799988,-6 -5.399963,-11.700012 -7.899963,-12.100006c-0.900024,-0.200012 -2.600037,0.399994 -3.600037,1.299988c-3.700012,3.300018 -9.700012,-2 -13.599976,-12c-2,-5.399994 -1.400024,-7.199982 3.099976,-9.099976c2,-0.800018 3.799988,-2.100006 4.100037,-2.800018c0.599976,-1.600006 -3.100037,-11.799988 -5.400024,-14.600006c-1.099976,-1.299988 -3.700012,-2.5 -6.700012,-3.099976c-10.5,-2 -19,-8.100006 -32,-23.200012c-4.200012,-4.799988 -8.200012,-8.700012 -9,-8.700012c-0.700012,0 -2.799988,1.800018 -4.5,4c-3.899963,5 -6.599976,6.600006 -8.399963,5c-1.5,-1.099976 -7,-17.099976 -8.100037,-23.299988c-0.899963,-4.5 -0.399963,-4.5 9.299988,-1.799988zm-50.799988,14.099976c2.600037,1.300018 5.700012,1.900024 9.900024,1.900024c6.700012,-0.100006 13.399963,2.5 13.899963,5.399994c0.300049,1.199982 -1,2.399994 -4.699951,4.100006c-6.700012,3.099976 -8.100037,4.399994 -8.100037,7.5c0.100037,3.099976 3.299988,12.799988 4.799988,14.299988c0.5,0.5 4.5,1 8.800049,1c9.5,0 13.299988,1.299988 22.099976,7.299988c3.700012,2.600006 8,4.900024 9.400024,5.200012c1.5,0.299988 3.799988,1.600006 5.099976,3c2.200012,2.399994 2.299988,2.899994 2,18.299988c-0.400024,19.600006 0.599976,24.100006 9.099976,39.900024c3.400024,6.399994 6.5,12.399994 6.900024,13.399994c0.700012,1.5 -0.599976,2.5 -7.700012,5.899994c-4.599976,2.200012 -9.099976,3.799988 -9.899963,3.5c-2.100037,-0.799988 -7.200012,-8.100006 -15.700012,-22.200012c-10.100037,-16.699982 -13.5,-21.199982 -18.200012,-23.899994c-4.5,-2.600006 -17,-6.600006 -20.5,-6.600006c-3.200012,0 -4.5,3.5 -5,14.100006l-0.5,9.600006l2.900024,2.200012c2.399963,1.899994 3.799988,2.199982 7.799988,1.799988c5.099976,-0.5 6,-1.299988 8.200012,-7.200012c1.199951,-3.299988 4,-4.299988 7.399963,-2.5c2.900024,1.5 7.600037,11.700012 9.600037,20.800018c1.299988,5.600006 1.5,10.799988 1.199951,21.600006c-0.599976,19.699982 -2.899963,23.5 -13,22.199982c-8.099976,-1.100006 -9.5,-2 -10.299988,-6.5c-0.899963,-5.100006 -1.799988,-5.699982 -4.599976,-2.899994c-4.400024,4.700012 -5.900024,12.799988 -2.299988,12.799988c0.799988,0 1.399963,0.899994 1.399963,2.000031c0,1.099976 -0.399963,2 -0.899963,2c-2.400024,0 -10,8.399963 -12.400024,13.799988c-3.799988,8.5 -8,24.700012 -8.099976,31.700012c-0.100037,8.899963 1.299988,17.399963 3.199951,19.099976c10.5,9.100037 12.700012,10.5 16.900024,10.200012c2.299988,-0.099976 4.599976,0.099976 4.900024,0.5c0.399963,0.400024 1.799988,6.400024 3,13.5c2.599976,14 5,21.599976 6.599976,20.599976c0.700012,-0.5 0.900024,-6.699951 0.400024,-19.599976c-0.600037,-16.299988 -0.5,-19.599976 0.899963,-23.900024c2,-6 1.400024,-14.399963 -1.5,-21.899963c-2.599976,-6.600037 -3.399963,-13.799988 -2.099976,-18.400024c0.799988,-3.099976 0.700012,-4.599976 -0.600037,-7.5c-0.899963,-2 -2,-4.399963 -2.5,-5.399963c-1.199951,-2.800049 2.400024,-5.700012 7.300049,-5.700012c5.699951,0 7.399963,1.200012 12.399963,9c2.400024,3.700012 4.700012,7 5.200012,7.299988c2.099976,1.299988 3.599976,-1.400024 4.200012,-7.400024c0.599976,-6.199951 0.599976,-6.299988 2.200012,-3.899963c0.799988,1.399963 3.099976,5.599976 5,9.5c2.5,5.200012 5.599976,9.099976 12.099976,15.5c4.799988,4.700012 9.400024,10.200012 10.200012,12.200012c1,2.299988 1.599976,6.699951 1.599976,11.399963c0,6.600037 -0.700012,9.799988 -5.099976,22.799988c-4.100037,11.900024 -5.200012,16.300049 -5.100037,21c0.300049,15.400024 6,5.600037 15.100037,-25.799988c2.599976,-8.799988 5.099976,-16.099976 5.599976,-16.200012c1.100037,-0.299988 13.5,14.800049 13.5,16.400024c0,0.5 -1.099976,1.700012 -2.399963,2.599976c-3.600037,2.300049 -9.5,8.600037 -11.400024,12.100037c-1.299988,2.299988 -1.700012,5.799988 -1.700012,15l0,12l-4.099976,6.200012c-3.600037,5.399963 -4.299988,7.199951 -4.900024,13.5c-1.099976,12.599976 -2.899963,15.799988 -8.899963,15.799988c-2.800049,0 -4,1.700012 -6.100037,8.799988c-1.700012,5.700012 -1.899963,9.200012 -1,15.299988c0.700012,4.200012 0.299988,5.299988 -4.899963,15.5c-3.600037,7.100037 -6.100037,13.5 -7.100037,18.400024c-0.799988,4.099976 -2.299988,9.599976 -3.200012,12.200012c-1.5,4.299988 -1.5,5.299988 -0.299988,10c0.900024,3.199951 1.400024,9.699951 1.400024,16.299988c-0.100037,10.599976 -0.299988,11.399963 -5.100037,24.5c-5,13.299988 -8.599976,24.200012 -9.599976,28.899963c-0.299988,1.300049 0.5,9.800049 1.900024,19c2.799988,18.700012 3.199951,34.300049 1.099976,41.100037l-1.400024,4.5l-1.199951,-3c-2.300049,-5.5 -4.900024,-16.900024 -6,-26.5c-1.200012,-9.799988 -3,-18 -3.800049,-18c-1.599976,0 -19.099976,7.5 -20.5,8.799988c-1.199951,1 -1.799988,3 -1.799988,5.900024c0,2.299988 -0.399963,4.299988 -1,4.299988c-0.5,0 -1,-0.400024 -1,-0.900024c0,-0.5 -1.200012,-2.399963 -2.700012,-4.099976c-2.199951,-2.700012 -3.099976,-3.100037 -5.599976,-2.600037l-3,0.600037l0.599976,-9.299988c0.400024,-6.900024 1.400024,-12 4.100037,-20c4,-12 4.599976,-20.900024 2.5,-36.200012c-1,-7.299988 -0.900024,-8.900024 1.099976,-16.5c1.299988,-5.100037 2.600037,-14.299988 3.100037,-23c0.899963,-13.299988 1.199951,-14.700012 3.599976,-17.900024c1.400024,-1.799988 3.400024,-3.599976 4.299988,-3.799988c1.900024,-0.5 3.600037,-9.200012 4.5,-23.799988c1.200012,-17.299988 7.799988,-45.5 10.700012,-45.5c1.700012,0 10.799988,5.200012 10.799988,6.200012c0,0.5 0.5,0.599976 1.100037,0.199951c0.799988,-0.5 0.599976,-1 -0.5,-1.599976c-0.900024,-0.5 -1.600037,-1.900024 -1.600037,-3.200012c0,-1.899963 -0.399963,-2.200012 -2.399963,-1.899963c-3.300049,0.699951 -6.600037,-1.300049 -6.600037,-4c-0.099976,-2.100037 -0.099976,-2.100037 -1.399963,0.299988c-0.800049,1.399963 -2.800049,7 -4.600037,12.5c-1.700012,5.5 -3.399963,10.700012 -3.700012,11.5c-1.5,4.299988 -2.699951,-5.299988 -2.899963,-23.299988c-0.299988,-19.100037 -1.400024,-31.800049 -3.299988,-38.200012c-1.400024,-4.400024 -1.200012,-1.200012 0.399963,10c0.799988,5.5 1.5,17.200012 1.5,26c0,10.299988 0.600037,18.5 1.5,23c1.5,6.799988 1.200012,17.200012 -0.5,20.299988c-0.899963,1.700012 -5.399963,-10.900024 -8.700012,-24.299988c-2.399963,-9.900024 -4.599976,-13.799988 -8.5,-15.100037c-1.5,-0.399963 -1.799988,-1.599976 -1.799988,-7.5c0,-8.699951 -0.899963,-10.5 -5.700012,-11.399963c-13,-2.400024 -16.399963,-12.900024 -10.299988,-31.5c2.5,-7.700012 3,-11.100037 3.400024,-21.799988c0.299988,-11.100037 0.700012,-13.5 3.099976,-19.200012c2.299988,-5.299988 2.799988,-8.100037 2.900024,-15.5c0.099976,-8.700012 0.299988,-9.400024 4.899963,-18.600037c6.600037,-13 9.800049,-16.899994 13.700012,-16.399994c1.799988,0.300018 2.799988,0 2.5,-0.5c-0.399963,-0.599976 -1.899963,-1 -3.599976,-1c-2,0 -2.900024,-0.5 -2.900024,-1.699982c0,-0.899994 -1,0.299988 -2.299988,2.799988c-1.299988,2.400024 -4.400024,8.200012 -7,12.900024c-5.799988,10.899963 -8,18.200012 -6.799988,23.299988c1.299988,5.299988 -1.100037,12.799988 -5.299988,17.400024c-2.700012,2.899963 -3.700012,3.5 -5.800049,3c-2.699951,-0.700012 -4.799988,-4.700012 -4.799988,-9.600037c-0.099976,-2.200012 -0.299988,-2 -1.5,1.400024c-0.799988,2.200012 -1.899963,4.099976 -2.5,4.299988c-0.5,0.200012 -1,0.799988 -1,1.400024c0,0.599976 0.900024,0.299988 1.900024,-0.600037c1.799988,-1.700012 2,-1.599976 2.599976,0.299988c1,3.300049 5.400024,6.200012 8.299988,5.400024l2.5,-0.599976l-0.599976,11.399963c-0.400024,8 -1.400024,14.200012 -3.400024,20.900024c-2.699951,9.5 -3.399963,17.599976 -2.099976,23.700012c0.799988,3.399963 -1,6 -10.900024,16.5c-3.099976,3.399963 -3.299988,3.799988 -1.5,3.799988c1.100037,0 2.300049,0.799988 2.5,1.700012c0.300049,1.199951 0.5,0.899963 0.600037,-0.800049c0.099976,-3.099976 5.5,-11.5 8.799988,-13.599976c2.200012,-1.5 2.5,-1.400024 4.599976,0.400024c1.200012,1.199951 3.600037,2.799988 5.400024,3.699951c2.099976,1.100037 3.299988,2.5 3.599976,4.300049c0.400024,2.599976 0.400024,2.599976 0.600037,-0.5c0.099976,-3.5 0.799988,-3.900024 3.599976,-1.800049c1.600037,1.100037 1.700012,2.200012 1.200012,8c-0.599976,6.200012 -0.400024,6.900024 1.599976,8.900024c1.300049,1.200012 3.100037,2.599976 4,3.200012c1.200012,0.700012 3.5,7.299988 7.200012,20.399963c6.299988,22.300049 7.299988,28.200012 5.5,34.5c-1.399963,5.200012 -6.200012,10.900024 -8.399963,10c-1.400024,-0.5 -1.600037,0.600037 -1.600037,7.700012c0,11.900024 -1.599976,26 -4.099976,36.100037l-2.100037,8.699951l-4.699951,-3.799988c-2.5,-2.099976 -6.400024,-4.599976 -8.600037,-5.599976c-2.200012,-1 -4.599976,-2.5 -5.299988,-3.400024c-1.099976,-1.399963 -1.099976,-1.399963 -0.599976,0.200012c0.399963,1 1.5,2.200012 2.5,2.799988c1.099976,0.5 1.899963,1.700012 1.899963,2.5c0,1 0.600037,1.400024 1.400024,1.100037c0.799988,-0.300049 2.700012,0.399963 4.299988,1.599976c8.599976,6.599976 11.400024,13.400024 11.5,27.900024c0,7.599976 -0.5,10.699951 -2.599976,16.799988c-3.200012,8.899963 -5.600037,22 -5.600037,30c0,4.399963 -0.5,6.200012 -2.099976,8.099976c-1.200012,1.299988 -3.700012,4.700012 -5.5,7.600037c-3.100037,4.699951 -3.400024,5.899963 -3.400024,12.799988c0,4.099976 -0.399963,7.5 -0.899963,7.5c-0.900024,0 -4.200012,-9.299988 -5.5,-15c-0.300049,-1.400024 -1,-7.400024 -1.600037,-13.299988c-1.299988,-13.100037 -3,-17.700012 -8.099976,-22.100037c-3.700012,-3.099976 -4,-3.899963 -5.400024,-12.200012c-0.899963,-4.899963 -3,-12.5 -4.700012,-16.899963c-3.399963,-8.299988 -3.599976,-10.400024 -2.799988,-28c0.200012,-4.900024 -0.200012,-8.400024 -1.5,-11.5c-2.799988,-7.5 -7.399963,-24 -8.5,-30.400024c-0.899963,-5.899963 -0.899963,-5.799988 -0.399963,2.100037c0.299988,5.099976 0.199951,8.299988 -0.400024,8.299988c-1.400024,0 -5.900024,-5.5 -6.799988,-8.200012c-1.5,-5 -6.299988,-10.599976 -10.5,-12.200012l-4.200012,-1.700012l0.799988,-10.199951c0.700012,-11.100037 2.5,-21.800049 5.700012,-34.200012c3.5,-13.799988 1.5,-49.100037 -3.900024,-66.900024c-0.5,-1.799988 -0.599976,-1.799988 -1.799988,0.5l-1.299988,2.400024l-0.5,-2.5c-0.299988,-1.400024 -1.700012,-7.600037 -3.200012,-13.900024c-2.399963,-10.099976 -2.599976,-12.5 -2,-21.200012c0.5,-7.099976 0.400024,-9.899963 -0.399963,-9.899963c-0.600037,0 -3.300049,-2.299988 -6,-5.200012c-2.600037,-2.799988 -5.300049,-4.799988 -5.800049,-4.5c-0.599976,0.400024 -1.5,2.599976 -2.099976,5c-1,3.700012 -2,4.900024 -6.400024,7.799988c-6.799988,4.400024 -6.799988,4.299988 -6.799988,2.5c0,-0.899963 0.400024,-1.599976 1,-1.599976c0.5,0 2.299988,-2 4,-4.5c1.700012,-2.5 4,-5.400024 5.100037,-6.400024c1.899963,-1.799988 1.899963,-1.799988 0,-4.299988c-3.100037,-3.799988 -3.400024,-7.099976 -2.100037,-17.599976c1.600037,-12.5 2.100037,-13.600037 7,-16.800049c4.700012,-3.099976 5.900024,-6.399963 3.600037,-9.899994c-1.900024,-2.799988 -2,-6.599976 -0.300049,-11.5c0.900024,-2.699982 1.700012,-3.5 3.700012,-3.5c2,0 3,-1.099976 5.299988,-5.699982c2.700012,-5.399994 5.5,-7.700012 7.600037,-6.300018c0.599976,0.300018 2,3.300018 3.200012,6.600006c2.099976,5.700012 4.799988,8.899994 7.599976,8.899994c2.599976,0 1.400024,-5.699982 -2.200012,-10c-1.899963,-2.299988 -3.5,-4.799988 -3.5,-5.5c0,-2.399994 2.799988,-3.799988 6.5,-3.099976c4.700012,0.899994 8.600037,4.5 11.5,10.5c1.299988,2.799988 3,5.099976 3.799988,5.099976c0.800049,0 3.700012,1.600006 6.400024,3.600006c2.700012,2 5,3.5 5.200012,3.300018c0.200012,-0.200012 0.799988,-6.400024 1.399963,-13.800018c1,-13.299988 1,-13.399994 6.100037,-23.199982c2.799988,-5.400024 5.099976,-10.100006 5.099976,-10.5c0,-1.600006 -3.299988,2.399994 -8,9.599976c-5.700012,9 -6.299988,9.5 -8,7.5c-1.799988,-2.199982 -2.599976,-1.899994 -7.599976,2.700012c-5.299988,4.899994 -6.400024,4.600006 -10.5,-2.299988c-2.799988,-4.800018 -2.700012,-4.800018 -13.100037,-3.600006c-3.199951,0.299988 -5.799988,0.299988 -5.799988,-0.100006c0,-0.399994 2,-3.399994 4.5,-6.700012c5.600037,-7.299988 10.5,-17.5 13.5,-27.5c4.900024,-16.899994 7.299988,-22.299988 12.200012,-27.699982c3.400024,-3.700012 5.200012,-6.899994 6.400024,-11c2.599976,-9.399994 6.299988,-15.200012 12.299988,-19.600006c3,-2.200012 11.399963,-10 18.5,-17.200012c7.200012,-7.199982 13.700012,-13.199982 14.399963,-13.299988c0.700012,-0.100006 3,0.700012 5.200012,1.799988zm188.900024,189.300018c7.5,23.200012 22.399963,103.599976 26.599976,143.599976c1.200012,11.900024 -2.099976,6.5 -9.899963,-16.099976c-5.800049,-17 -20.300049,-67.700012 -21.600037,-75.900024c-1.399963,-8.399963 -1.099976,-55.399963 0.299988,-57.699951c1.300049,-2 2.400024,-0.600037 4.600037,6.099976zm-269.400024,189.5c2.799988,1.900024 5.200012,5 7.799988,9.900024c2.600037,5 4.600037,7.5 6.600037,8.399963c2.299988,1 3.299988,2.400024 4.399963,6.400024c0.800049,2.700012 1.200012,5.299988 1,5.700012c-0.799988,1.5 -8.399963,2.899963 -11.799988,2.199951c-3.5,-0.599976 -3.599976,-0.5 -5.799988,4.5c-2.200012,5 -3.700012,6.5 -3.700012,3.600037c0,-0.799988 -0.899963,-2.299988 -2,-3.200012c-1.899963,-1.599976 -2,-3 -2,-21c0,-10.599976 0.299988,-19.299988 0.799988,-19.299988c0.400024,0.099976 2.5,1.299988 4.700012,2.799988zm22,36.799988c1.700012,1.200012 2.100037,2.900024 2.299988,10.400024c0.200012,4.899963 0,10.899963 -0.599976,13.399963c-0.900024,4.100037 -0.599976,5.5 2,11.800049c3.599976,9.099976 6.599976,20.299988 7.400024,28.299988c0.599976,5.5 0.399963,6.700012 -1.900024,10.599976c-1.400024,2.400024 -4.200012,8.400024 -6.200012,13.400024c-1.899963,4.899963 -4.099976,9.299988 -4.799988,9.700012c-0.599976,0.399963 -0.900024,1 -0.5,1.299988c0.900024,0.899963 5.299988,-6.200012 6.200012,-10c0.899963,-3.5 7.099976,-14.799988 9.099976,-16.5c1,-0.799988 1.900024,-0.799988 3.400024,0c3.799988,2 6.099976,8.5 7.700012,21.5c1.399963,12.299988 4.299988,24 7,28.299988c1.099976,1.599976 1.5,6.200012 1.799988,16.5c0.299988,16.099976 2.399963,26.099976 8.099976,38.5c4.700012,10 7.100037,13.200012 10.100037,13.200012c3.299988,0 5.899963,-5.900024 6.899963,-15.5c1,-10 1.799988,-11.5 5.799988,-11.5c2.200012,0 4.100037,0.799988 5.300049,2.099976c1.699951,1.900024 2,4.299988 2.399963,23.799988c0.600037,24.300049 0.700012,24.900024 8.400024,32.100037c5.700012,5.299988 6.399963,8.200012 7.5,31.799988c1,20.200012 1.799988,22.700012 9.5,30.100037c3.099976,3 3.700012,3.299927 5.200012,2c1.599976,-1.300049 1.699951,-1.099976 1.099976,2.5c-0.799988,5 -3.200012,8.599976 -5.799988,8.599976c-5.700012,0 -21.799988,-25.099976 -24,-37.700012c-3.200012,-17.700012 -2.799988,-17 -10.100037,-20.700012c-5.899963,-3 -9.5,-7.200012 -14.399963,-17c-2.5,-5 -4.700012,-9.299988 -5,-9.5c-0.200012,-0.200012 -1.5,0.600037 -2.799988,1.799988c-1.300049,1.300049 -3.200012,2.100037 -4.200012,1.900024c-4.200012,-0.799988 -21.700012,-31.099976 -26.299988,-45.599976c-2.200012,-6.900024 -3.800049,-15.400024 -5.600037,-29.400024c-1.799988,-14.599976 -3.099976,-21.200012 -4.899963,-25.599976c-2.400024,-5.700012 -6.600037,-24.300049 -10.200012,-45c-0.900024,-5.600037 -1.900024,-10 -2.200012,-9.800049c-0.200012,0.300049 0.099976,4.700012 0.700012,9.800049c0.599976,5.099976 1.5,16 2.099976,24.299988c0.5,8.200012 1.600037,17.200012 2.400024,20c2.200012,7.399963 2.899963,13.700012 1.799988,16.399963c-0.799988,2.300049 -0.900024,2.300049 -2.5,-1.699951c-4.799988,-12 -9.799988,-49.200012 -12.700012,-94.5c-0.799988,-13.800049 -1.299988,-16.300049 -3.5,-20.5c-1.399963,-2.600037 -2.5,-6.200012 -2.399963,-8.200012l0.099976,-3.5l1.5,3.700012c0.900024,2.099976 1.900024,3.799988 2.299988,3.799988c0.400024,0 1.700012,-2.200012 2.799988,-4.900024c1.900024,-4.799988 2.200012,-5 6.400024,-5.399963c8.799988,-0.800049 11.400024,-0.600037 13.299988,0.899963zm100,154.799988c7.799988,1.200012 17.299988,5.200012 22.400024,9.300049c2,1.599976 2.299988,2.5 1.700012,5.5c-0.800049,4.299988 -2.300049,5.699951 -7,6.5c-3.200012,0.5 -4.200012,0.099976 -8.400024,-3.400024c-3.700012,-3.099976 -5.900024,-4.099976 -10,-4.700012c-2.900024,-0.399963 -6.400024,-1.200012 -7.700012,-1.799988c-2.5,-1.099976 -6.5,-8 -6.5,-11.099976c0,-2.100037 4.200012,-2.200012 15.5,-0.300049zm49,15.5c1,3.400024 -1.200012,10.300049 -4.200012,12.700012c-4.199951,3.400024 -11,6.700012 -12.199951,6c-1.600037,-1 -1.300049,-10.299988 0.399963,-13.599976c1.700012,-3.299988 4.400024,-5.100037 9.5,-6.100037c5.5,-1.099976 5.799988,-1 6.5,1zm0.900024,68.800049c2.200012,8.899963 3.5,10.199951 7.799988,8c1.799988,-0.900024 4.599976,-2.700012 6.200012,-3.900024c3.299988,-2.700012 2.5,-3.299988 9.899963,8.200012c2.300049,3.599976 4.900024,6.599976 5.800049,6.799988c0.899963,0.200012 4,-1.700012 7,-4.099976c9.199951,-7.400024 12.5,-8.300049 17.299988,-4.600037c3.299988,2.600037 5.099976,6 8.099976,15.599976c3.200012,10 3.799988,10.700073 7.900024,8.600098c3.599976,-1.900024 7.599976,-4.800049 16.5,-12c3.599976,-2.900085 7.299988,-5.300049 8.299988,-5.300049c1.400024,0 2.900024,2.200012 5.5,7.599976c3.400024,7.099976 3.5,8 3,14.700073c-0.799988,10.899902 -8.799988,37.099976 -22.5,74.199951c-11.700012,31.300049 -30.599976,69.199951 -43.400024,86.5c-12.299988,16.800049 -30.899963,35.699951 -43.899963,44.699951c-13.900024,9.600098 -29,15.700073 -42.900024,17.5c-3.700012,0.5 -3,-1.699951 6.5,-18.699951c11.5,-20.699951 14.799988,-27.900024 15.299988,-34.199951c0.5,-5.700073 0,-6.300049 -9.699951,-14.700073c-4.700012,-4 -9.900024,-15.799927 -16.600037,-37.5c-4.399963,-14.299927 -5.5,-19.199951 -5,-22c0.299988,-2 3.799988,-10.799927 7.700012,-19.599976c9,-20.400024 13.799988,-32.5 17.799988,-45.400024l3.200012,-10.299927l-2.099976,-4.800049c-1.300049,-2.900024 -2.100037,-7 -2.100037,-10.199951c0,-6.100098 3.700012,-32.300049 5,-35.400085c0.5,-1.399963 2.100037,-2.399963 4.600037,-2.899963c5.099976,-0.900024 8.099976,-2.5 15.5,-8.5c3.399963,-2.700012 6.5,-5 6.899963,-5c0.400024,0 1.5,3 2.400024,6.700012z"/>
  <path fill="#000000" id="svg_6" d="m1492,156.599976c-70.699951,54.900009 -175.5,136.299988 -233,180.899994l-104.5,81.100006l0,381.400024l0,381.400024l233,180.400024l233,180.399902l0.300049,-371.699951c0.099976,-204.400024 0.099976,-538.600037 0,-742.600006l-0.300049,-371.000019l-128.5,99.700001zm112.800049,994.300049l-0.300049,352l-125.5,-93.599976c-69,-51.5 -169.400024,-126.300049 -223,-166.300049l-97.5,-72.699951l-0.299927,-370.100037l-0.200073,-370.200043l55.200073,-41.299988c70.299927,-52.5 278.199951,-207.900009 342.299927,-255.900009l49,-36.599998l0.300049,351.299995c0.099976,193.200043 0.099976,509.700043 0,703.400055z"/>
  <path fill="#0000ff" id="svg_7" d="m1348.400024,330.099976c-0.199951,0.300018 -1.699951,0.600006 -3.300049,0.700012c-1.599976,0 -4,0.600006 -5.299927,1.299988c-1.300049,0.700012 -2.300049,1.100006 -2.300049,0.899994c0,-0.5 -4.699951,1 -8.5,2.700012c-18.5,8.299988 -36.699951,23.100006 -51.799927,41.799988c-3.200073,3.800018 -5.900024,7.200012 -6.200073,7.5c-1,0.900024 -12,16.800018 -12,17.300018c0,0.299988 -2.199951,4.100006 -4.900024,8.5c-9.399902,15.100006 -21.5,40.699982 -31.299927,66.199982c-28,73.000031 -46.800049,174.000031 -50.800049,273.000031c-4.699951,117 7,229.700012 33.5,321.199951c13.599976,47.100098 24.200073,74.300049 41.800049,107.300049c17.099976,31.900024 35,55.099976 54.299927,70.400024c7.100098,5.699951 23.5,16.099976 25.200073,16.099976c0.599976,0 2.299927,0.599976 3.900024,1.400024c5,2.5 7.699951,3.5 10.799927,4c1.700073,0.299927 4.099976,0.799927 5.5,1.099976c4.300049,1.099976 20.300049,1.400024 26,0.5c7.300049,-1.199951 12.200073,-2.699951 19.800049,-6.099976c3.400024,-1.599976 6.599976,-2.900024 7.099976,-2.900024c1.199951,0 16.699951,-10.5 21.099976,-14.300049c14.300049,-12.299927 27.400024,-27 36.5,-40.899902c2.900024,-4.600098 6.200073,-9.400024 7.300049,-10.800049c5.799927,-7.400024 25,-46.800049 33.5,-68.5c3.799927,-9.800049 11.900024,-32.599976 13.099976,-37.099976c0.800049,-2.700073 3,-10.5 5.099976,-17.400024c3.5,-11.900024 5.900024,-21.300049 9.099976,-34.5c0.800049,-3.300049 1.700073,-6.900024 2,-8c2.200073,-8.600037 9.300049,-47.900024 12.900024,-71c0.099976,-1.100037 1,-8.299988 1.900024,-16c0.900024,-7.700012 2.099976,-16.900024 2.599976,-20.5c0.900024,-5.700012 2.700073,-24.900024 3.5,-38c0.200073,-2.5 0.800049,-11.900024 1.400024,-21c2,-30.900024 1.300049,-110.799988 -1.400024,-148c-1.199951,-17 -6,-61.799988 -7.5,-70.5c-0.599976,-3.299988 -1.699951,-10.299988 -2.5,-15.5c-5,-33 -13.599976,-73.700012 -20.400024,-97c-8.599976,-28.900024 -15.699951,-50.100006 -22.699951,-67.500031c-10.199951,-24.899994 -26.400024,-56.5 -35.900024,-70c-21.699951,-30.5 -39.5,-47.5 -61.199951,-58.399994c-13.099976,-6.5 -25.599976,-9.299988 -39.599976,-8.899994c-5.5,0.200012 -10,0.600006 -10.300049,0.899994zm28.400024,3.800018c26.699951,7.599976 48,23.799988 70.099976,53.099976c22.099976,29.300018 33.699951,51.800018 51.699951,99.800018c5.900024,15.5 6.600098,18.199982 6.200073,22.899994c-0.300049,3.100006 -1.200073,6.100006 -2.099976,7.000031c-1.5,1.5 -1.900024,1.399963 -5.200073,-2.100037c-4.299927,-4.5 -10.400024,-14.899994 -13.799927,-23.399994c-2.700073,-6.600006 -4.700073,-17.799988 -4.700073,-26.5c0,-6.100006 -1.5,-12.200012 -3.900024,-15.399994c-0.899902,-1.200012 -3.799927,-3 -6.399902,-3.899994c-5.400024,-1.800018 -7,-3.800018 -9.200073,-11.100006c-1.799927,-6 -5.400024,-11.700012 -7.900024,-12.100006c-0.899902,-0.200012 -2.599976,0.399994 -3.599976,1.299988c-3.699951,3.300018 -9.699951,-2 -13.599976,-12c-2,-5.399994 -1.400024,-7.199982 3.099976,-9.099976c2,-0.800018 3.800049,-2.100006 4.099976,-2.800018c0.600098,-1.600006 -3.099976,-11.799988 -5.399902,-14.600006c-1.100098,-1.299988 -3.700073,-2.5 -6.700073,-3.099976c-10.5,-2 -19,-8.100006 -32,-23.200012c-4.199951,-4.799988 -8.199951,-8.700012 -9,-8.700012c-0.699951,0 -2.799927,1.800018 -4.5,4c-3.900024,5 -6.599976,6.600006 -8.400024,5c-1.5,-1.099976 -7,-17.099976 -8.099976,-23.299988c-0.900024,-4.5 -0.400024,-4.5 9.300049,-1.799988zm-50.800049,14.099976c2.599976,1.300018 5.700073,1.900024 9.900024,1.900024c6.699951,-0.100006 13.400024,2.5 13.900024,5.399994c0.299927,1.199982 -1,2.399994 -4.700073,4.100006c-6.699951,3.099976 -8.099976,4.399994 -8.099976,7.5c0.099976,3.099976 3.300049,12.799988 4.800049,14.299988c0.5,0.5 4.5,1 8.799927,1c9.5,0 13.300049,1.299988 22.100098,7.299988c3.699951,2.600006 8,4.900024 9.399902,5.200012c1.5,0.299988 3.800049,1.600006 5.100098,3c2.199951,2.399994 2.299927,2.899994 2,18.299988c-0.400024,19.600006 0.599976,24.100006 9.099976,39.900024c3.400024,6.399994 6.5,12.399994 6.900024,13.399994c0.699951,1.5 -0.600098,2.5 -7.700073,5.899994c-4.599976,2.200012 -9.099976,3.799988 -9.900024,3.5c-2.099976,-0.799988 -7.199951,-8.100006 -15.699951,-22.200012c-10.099976,-16.699982 -13.5,-21.199982 -18.199951,-23.899994c-4.5,-2.600006 -17,-6.600006 -20.5,-6.600006c-3.200073,0 -4.5,3.5 -5,14.100006l-0.5,9.600006l2.899902,2.200012c2.400024,1.899994 3.800049,2.199982 7.800049,1.799988c5.099976,-0.5 6,-1.299988 8.199951,-7.200012c1.200073,-3.299988 4,-4.299988 7.400024,-2.5c2.900024,1.5 7.599976,11.700012 9.599976,20.800018c1.300049,5.600006 1.5,10.799988 1.200073,21.600006c-0.599976,19.699982 -2.900024,23.5 -13,22.199982c-8.099976,-1.100006 -9.5,-2 -10.300049,-6.5c-0.900024,-5.100006 -1.799927,-5.699982 -4.599976,-2.899994c-4.400024,4.700012 -5.900024,12.799988 -2.300049,12.799988c0.800049,0 1.400024,0.899994 1.400024,2.000031c0,1.099976 -0.400024,2 -0.900024,2c-2.399902,0 -10,8.399963 -12.399902,13.799988c-3.800049,8.5 -8,24.700012 -8.100098,31.700012c-0.099976,8.899963 1.300049,17.399963 3.200073,19.099976c10.5,9.100037 12.699951,10.5 16.900024,10.200012c2.299927,-0.099976 4.599976,0.099976 4.899902,0.5c0.400024,0.400024 1.800049,6.400024 3,13.5c2.600098,14 5,21.599976 6.600098,20.599976c0.699951,-0.5 0.899902,-6.699951 0.399902,-19.599976c-0.599976,-16.299988 -0.5,-19.599976 0.900024,-23.900024c2,-6 1.400024,-14.399963 -1.5,-21.899963c-2.599976,-6.600037 -3.400024,-13.799988 -2.099976,-18.400024c0.800049,-3.099976 0.699951,-4.599976 -0.599976,-7.5c-0.900024,-2 -2,-4.399963 -2.5,-5.399963c-1.200073,-2.800049 2.400024,-5.700012 7.299927,-5.700012c5.700073,0 7.400024,1.200012 12.400024,9c2.400024,3.700012 4.700073,7 5.200073,7.299988c2.099976,1.299988 3.599976,-1.400024 4.199951,-7.400024c0.599976,-6.199951 0.599976,-6.299988 2.199951,-3.899963c0.800049,1.399963 3.100098,5.599976 5,9.5c2.5,5.200012 5.600098,9.099976 12.100098,15.5c4.799927,4.700012 9.399902,10.200012 10.199951,12.200012c1,2.299988 1.599976,6.699951 1.599976,11.399963c0,6.600037 -0.699951,9.799988 -5.099976,22.799988c-4.099976,11.900024 -5.199951,16.300049 -5.099976,21c0.299927,15.400024 6,5.600037 15.099976,-25.799988c2.599976,-8.799988 5.099976,-16.099976 5.599976,-16.200012c1.099976,-0.299988 13.5,14.800049 13.5,16.400024c0,0.5 -1.099976,1.700012 -2.400024,2.599976c-3.599976,2.300049 -9.5,8.600037 -11.399902,12.100037c-1.300049,2.299988 -1.700073,5.799988 -1.700073,15l0,12l-4.099976,6.200012c-3.599976,5.399963 -4.300049,7.199951 -4.900024,13.5c-1.099976,12.599976 -2.900024,15.799988 -8.900024,15.799988c-2.799927,0 -4,1.700012 -6.099976,8.799988c-1.699951,5.700012 -1.900024,9.200012 -1,15.299988c0.700073,4.200012 0.300049,5.299988 -4.900024,15.5c-3.599976,7.100037 -6.099976,13.5 -7.099976,18.400024c-0.799927,4.099976 -2.299927,9.599976 -3.199951,12.200012c-1.5,4.299988 -1.5,5.299988 -0.300049,10c0.900024,3.199951 1.400024,9.699951 1.400024,16.299988c-0.099976,10.599976 -0.300049,11.399963 -5.099976,24.5c-5,13.299988 -8.599976,24.200012 -9.599976,28.899963c-0.300049,1.300049 0.5,9.800049 1.899902,19c2.800049,18.700012 3.200073,34.300049 1.100098,41.100037l-1.400024,4.5l-1.200073,-3c-2.299927,-5.5 -4.899902,-16.900024 -6,-26.5c-1.199951,-9.799988 -3,-18 -3.799927,-18c-1.599976,0 -19.099976,7.5 -20.5,8.799988c-1.200073,1 -1.800049,3 -1.800049,5.900024c0,2.299988 -0.400024,4.299988 -1,4.299988c-0.5,0 -1,-0.400024 -1,-0.900024c0,-0.5 -1.199951,-2.399963 -2.699951,-4.099976c-2.200073,-2.700012 -3.099976,-3.100037 -5.599976,-2.600037l-3,0.600037l0.599976,-9.299988c0.400024,-6.900024 1.400024,-12 4.099976,-20c4,-12 4.599976,-20.900024 2.5,-36.200012c-1,-7.299988 -0.900024,-8.900024 1.099976,-16.5c1.300049,-5.100037 2.599976,-14.299988 3.099976,-23c0.900024,-13.299988 1.200073,-14.700012 3.600098,-17.900024c1.399902,-1.799988 3.399902,-3.599976 4.299927,-3.799988c1.900024,-0.5 3.599976,-9.200012 4.5,-23.799988c1.200073,-17.299988 7.800049,-45.5 10.700073,-45.5c1.699951,0 10.799927,5.200012 10.799927,6.200012c0,0.5 0.5,0.599976 1.099976,0.199951c0.800049,-0.5 0.600098,-1 -0.5,-1.599976c-0.899902,-0.5 -1.599976,-1.900024 -1.599976,-3.200012c0,-1.899963 -0.400024,-2.200012 -2.400024,-1.899963c-3.299927,0.699951 -6.599976,-1.300049 -6.599976,-4c-0.099976,-2.100037 -0.099976,-2.100037 -1.400024,0.299988c-0.799927,1.399963 -2.799927,7 -4.599976,12.5c-1.699951,5.5 -3.400024,10.700012 -3.699951,11.5c-1.5,4.299988 -2.700073,-5.299988 -2.900024,-23.299988c-0.300049,-19.100037 -1.400024,-31.800049 -3.300049,-38.200012c-1.399902,-4.400024 -1.199951,-1.200012 0.400024,10c0.800049,5.5 1.5,17.200012 1.5,26c0,10.299988 0.599976,18.5 1.5,23c1.5,6.799988 1.200073,17.200012 -0.5,20.299988c-0.900024,1.700012 -5.400024,-10.900024 -8.699951,-24.299988c-2.400024,-9.900024 -4.599976,-13.799988 -8.5,-15.100037c-1.5,-0.399963 -1.800049,-1.599976 -1.800049,-7.5c0,-8.699951 -0.900024,-10.5 -5.699951,-11.399963c-13,-2.400024 -16.400024,-12.900024 -10.300049,-31.5c2.5,-7.700012 3,-11.100037 3.400024,-21.799988c0.300049,-11.100037 0.699951,-13.5 3.099976,-19.200012c2.300049,-5.299988 2.800049,-8.100037 2.900024,-15.5c0.099976,-8.700012 0.300049,-9.400024 4.900024,-18.600037c6.599976,-13 9.799927,-16.899994 13.699951,-16.399994c1.800049,0.300018 2.800049,0 2.5,-0.5c-0.400024,-0.599976 -1.900024,-1 -3.599976,-1c-2,0 -2.900024,-0.5 -2.900024,-1.699982c0,-0.899994 -1,0.299988 -2.299927,2.799988c-1.300049,2.400024 -4.400024,8.200012 -7,12.900024c-5.800049,10.899963 -8,18.200012 -6.800049,23.299988c1.300049,5.299988 -1.099976,12.799988 -5.300049,17.400024c-2.699951,2.899963 -3.699951,3.5 -5.799927,3c-2.700073,-0.700012 -4.800049,-4.700012 -4.800049,-9.600037c-0.099976,-2.200012 -0.299927,-2 -1.5,1.400024c-0.799927,2.200012 -1.900024,4.099976 -2.5,4.299988c-0.5,0.200012 -1,0.799988 -1,1.400024c0,0.599976 0.900024,0.299988 1.900024,-0.600037c1.800049,-1.700012 2,-1.599976 2.599976,0.299988c1,3.300049 5.400024,6.200012 8.300049,5.400024l2.5,-0.599976l-0.599976,11.399963c-0.400024,8 -1.400024,14.200012 -3.400024,20.900024c-2.700073,9.5 -3.400024,17.599976 -2.099976,23.700012c0.799927,3.399963 -1,6 -10.900024,16.5c-3.099976,3.399963 -3.300049,3.799988 -1.5,3.799988c1.099976,0 2.299927,0.799988 2.5,1.700012c0.299927,1.199951 0.5,0.899963 0.599976,-0.800049c0.099976,-3.099976 5.5,-11.5 8.800049,-13.599976c2.199951,-1.5 2.5,-1.400024 4.599976,0.400024c1.199951,1.199951 3.599976,2.799988 5.400024,3.699951c2.099976,1.100037 3.299927,2.5 3.599976,4.300049c0.400024,2.599976 0.400024,2.599976 0.599976,-0.5c0.099976,-3.5 0.800049,-3.900024 3.599976,-1.800049c1.599976,1.100037 1.700073,2.200012 1.200073,8c-0.600098,6.200012 -0.400024,6.900024 1.599976,8.900024c1.299927,1.200012 3.099976,2.599976 4,3.200012c1.199951,0.700012 3.5,7.299988 7.199951,20.399963c6.300049,22.300049 7.300049,28.200012 5.5,34.5c-1.400024,5.200012 -6.199951,10.900024 -8.400024,10c-1.399902,-0.5 -1.599976,0.600037 -1.599976,7.700012c0,11.900024 -1.599976,26 -4.099976,36.100037l-2.099976,8.699951l-4.700073,-3.799988c-2.5,-2.099976 -6.399902,-4.599976 -8.599976,-5.599976c-2.199951,-1 -4.599976,-2.5 -5.299927,-3.400024c-1.100098,-1.399963 -1.100098,-1.399963 -0.600098,0.200012c0.400024,1 1.5,2.200012 2.5,2.799988c1.100098,0.5 1.900024,1.700012 1.900024,2.5c0,1 0.599976,1.400024 1.400024,1.100037c0.800049,-0.300049 2.699951,0.399963 4.300049,1.599976c8.599976,6.599976 11.399902,13.400024 11.5,27.900024c0,7.599976 -0.5,10.699951 -2.600098,16.799988c-3.199951,8.899963 -5.599976,22 -5.599976,30c0,4.399963 -0.5,6.200012 -2.099976,8.099976c-1.199951,1.299988 -3.699951,4.700012 -5.5,7.600037c-3.099976,4.699951 -3.400024,5.899963 -3.400024,12.799988c0,4.099976 -0.400024,7.5 -0.900024,7.5c-0.899902,0 -4.199951,-9.299988 -5.5,-15c-0.299927,-1.400024 -1,-7.400024 -1.599976,-13.299988c-1.299927,-13.100037 -3,-17.700012 -8.099976,-22.100037c-3.699951,-3.099976 -4,-3.899963 -5.400024,-12.200012c-0.900024,-4.899963 -3,-12.5 -4.699951,-16.899963c-3.400024,-8.299988 -3.599976,-10.400024 -2.800049,-28c0.200073,-4.900024 -0.199951,-8.400024 -1.5,-11.5c-2.799927,-7.5 -7.400024,-24 -8.5,-30.400024c-0.900024,-5.899963 -0.900024,-5.799988 -0.400024,2.100037c0.300049,5.099976 0.200073,8.299988 -0.399902,8.299988c-1.400024,0 -5.900024,-5.5 -6.800049,-8.200012c-1.5,-5 -6.300049,-10.599976 -10.5,-12.200012l-4.199951,-1.700012l0.799927,-10.199951c0.700073,-11.100037 2.5,-21.800049 5.700073,-34.200012c3.5,-13.799988 1.5,-49.100037 -3.900024,-66.900024c-0.5,-1.799988 -0.599976,-1.799988 -1.800049,0.5l-1.299927,2.400024l-0.5,-2.5c-0.300049,-1.400024 -1.700073,-7.600037 -3.200073,-13.900024c-2.400024,-10.099976 -2.599976,-12.5 -2,-21.200012c0.5,-7.099976 0.400024,-9.899963 -0.400024,-9.899963c-0.599976,0 -3.299927,-2.299988 -6,-5.200012c-2.599976,-2.799988 -5.299927,-4.799988 -5.799927,-4.5c-0.599976,0.400024 -1.5,2.599976 -2.099976,5c-1,3.700012 -2,4.900024 -6.400024,7.799988c-6.800049,4.400024 -6.800049,4.299988 -6.800049,2.5c0,-0.899963 0.400024,-1.599976 1,-1.599976c0.5,0 2.300049,-2 4,-4.5c1.700073,-2.5 4,-5.400024 5.099976,-6.400024c1.900024,-1.799988 1.900024,-1.799988 0,-4.299988c-3.099976,-3.799988 -3.399902,-7.099976 -2.099976,-17.599976c1.599976,-12.5 2.099976,-13.600037 7,-16.800049c4.700073,-3.099976 5.900024,-6.399963 3.599976,-9.899994c-1.899902,-2.799988 -2,-6.599976 -0.299927,-11.5c0.900024,-2.699982 1.699951,-3.5 3.699951,-3.5c2,0 3,-1.099976 5.300049,-5.699982c2.699951,-5.399994 5.5,-7.700012 7.599976,-6.300018c0.599976,0.300018 2,3.300018 3.199951,6.600006c2.100098,5.700012 4.800049,8.899994 7.600098,8.899994c2.599976,0 1.399902,-5.699982 -2.200073,-10c-1.900024,-2.299988 -3.5,-4.799988 -3.5,-5.5c0,-2.399994 2.800049,-3.799988 6.5,-3.099976c4.700073,0.899994 8.599976,4.5 11.5,10.5c1.300049,2.799988 3,5.099976 3.800049,5.099976c0.799927,0 3.699951,1.600006 6.400024,3.600006c2.699951,2 5,3.5 5.199951,3.300018c0.199951,-0.200012 0.800049,-6.400024 1.400024,-13.800018c1,-13.299988 1,-13.399994 6.099976,-23.199982c2.800049,-5.400024 5.099976,-10.100006 5.099976,-10.5c0,-1.600006 -3.299927,2.399994 -8,9.599976c-5.699951,9 -6.299927,9.5 -8,7.5c-1.799927,-2.199982 -2.599976,-1.899994 -7.599976,2.700012c-5.300049,4.899994 -6.400024,4.600006 -10.5,-2.299988c-2.800049,-4.800018 -2.699951,-4.800018 -13.099976,-3.600006c-3.200073,0.299988 -5.800049,0.299988 -5.800049,-0.100006c0,-0.399994 2,-3.399994 4.5,-6.700012c5.599976,-7.299988 10.5,-17.5 13.5,-27.5c4.900024,-16.899994 7.300049,-22.299988 12.200073,-27.699982c3.399902,-3.700012 5.199951,-6.899994 6.399902,-11c2.600098,-9.399994 6.300049,-15.200012 12.300049,-19.600006c3,-2.200012 11.400024,-10 18.5,-17.200012c7.199951,-7.199982 13.699951,-13.199982 14.400024,-13.299988c0.699951,-0.100006 3,0.700012 5.199951,1.799988zm188.900024,189.300018c7.5,23.200012 22.400024,103.599976 26.599976,143.599976c1.200073,11.900024 -2.099976,6.5 -9.900024,-16.099976c-5.799927,-17 -20.299927,-67.700012 -21.599976,-75.900024c-1.400024,-8.399963 -1.099976,-55.399963 0.300049,-57.699951c1.299927,-2 2.400024,-0.600037 4.599976,6.099976zm-269.400024,189.5c2.800049,1.900024 5.200073,5 7.800049,9.900024c2.599976,5 4.599976,7.5 6.599976,8.399963c2.300049,1 3.300049,2.400024 4.400024,6.400024c0.799927,2.700012 1.199951,5.299988 1,5.700012c-0.800049,1.5 -8.400024,2.899963 -11.800049,2.199951c-3.5,-0.599976 -3.599976,-0.5 -5.799927,4.5c-2.200073,5 -3.700073,6.5 -3.700073,3.600037c0,-0.799988 -0.900024,-2.299988 -2,-3.200012c-1.900024,-1.599976 -2,-3 -2,-21c0,-10.599976 0.300049,-19.299988 0.800049,-19.299988c0.400024,0.099976 2.5,1.299988 4.699951,2.799988zm22,36.799988c1.700073,1.200012 2.099976,2.900024 2.300049,10.400024c0.199951,4.899963 0,10.899963 -0.599976,13.399963c-0.900024,4.100037 -0.600098,5.5 2,11.800049c3.599976,9.099976 6.599976,20.299988 7.399902,28.299988c0.600098,5.5 0.400024,6.700012 -1.899902,10.599976c-1.400024,2.400024 -4.200073,8.400024 -6.200073,13.400024c-1.900024,4.899963 -4.099976,9.299988 -4.799927,9.700012c-0.600098,0.399963 -0.900024,1 -0.5,1.299988c0.899902,0.899963 5.299927,-6.200012 6.199951,-10c0.900024,-3.5 7.099976,-14.799988 9.099976,-16.5c1,-0.799988 1.900024,-0.799988 3.400024,0c3.800049,2 6.099976,8.5 7.699951,21.5c1.400024,12.299988 4.300049,24 7,28.299988c1.100098,1.599976 1.5,6.200012 1.800049,16.5c0.300049,16.099976 2.400024,26.099976 8.099976,38.5c4.700073,10 7.099976,13.200012 10.099976,13.200012c3.300049,0 5.900024,-5.900024 6.900024,-15.5c1,-10 1.800049,-11.5 5.800049,-11.5c2.199951,0 4.099976,0.799988 5.299927,2.099976c1.700073,1.900024 2,4.299988 2.400024,23.799988c0.599976,24.300049 0.700073,24.900024 8.400024,32.100037c5.699951,5.299988 6.400024,8.200012 7.5,31.799988c1,20.200012 1.800049,22.700012 9.5,30.100037c3.099976,3 3.699951,3.299927 5.199951,2c1.600098,-1.300049 1.700073,-1.099976 1.100098,2.5c-0.800049,5 -3.200073,8.599976 -5.800049,8.599976c-5.699951,0 -21.800049,-25.099976 -24,-37.700012c-3.199951,-17.700012 -2.800049,-17 -10.099976,-20.700012c-5.900024,-3 -9.5,-7.200012 -14.400024,-17c-2.5,-5 -4.699951,-9.299988 -5,-9.5c-0.199951,-0.200012 -1.5,0.600037 -2.800049,1.799988c-1.299927,1.300049 -3.199951,2.100037 -4.199951,1.900024c-4.199951,-0.799988 -21.699951,-31.099976 -26.300049,-45.599976c-2.199951,-6.900024 -3.799927,-15.400024 -5.599976,-29.400024c-1.799927,-14.599976 -3.099976,-21.200012 -4.900024,-25.599976c-2.399902,-5.700012 -6.599976,-24.300049 -10.199951,-45c-0.900024,-5.600037 -1.900024,-10 -2.199951,-9.800049c-0.200073,0.300049 0.099976,4.700012 0.699951,9.800049c0.599976,5.099976 1.5,16 2.099976,24.299988c0.5,8.200012 1.599976,17.200012 2.400024,20c2.199951,7.399963 2.900024,13.700012 1.800049,16.399963c-0.800049,2.300049 -0.900024,2.300049 -2.5,-1.699951c-4.800049,-12 -9.800049,-49.200012 -12.700073,-94.5c-0.799927,-13.800049 -1.299927,-16.300049 -3.5,-20.5c-1.400024,-2.600037 -2.5,-6.200012 -2.400024,-8.200012l0.100098,-3.5l1.5,3.700012c0.899902,2.099976 1.899902,3.799988 2.299927,3.799988c0.400024,0 1.700073,-2.200012 2.800049,-4.900024c1.900024,-4.799988 2.199951,-5 6.400024,-5.399963c8.799927,-0.800049 11.399902,-0.600037 13.299927,0.899963zm100,154.799988c7.800049,1.200012 17.300049,5.200012 22.400024,9.300049c2,1.599976 2.300049,2.5 1.699951,5.5c-0.799927,4.299988 -2.299927,5.699951 -7,6.5c-3.199951,0.5 -4.199951,0.099976 -8.399902,-3.400024c-3.700073,-3.099976 -5.900024,-4.099976 -10,-4.700012c-2.900024,-0.399963 -6.400024,-1.200012 -7.700073,-1.799988c-2.5,-1.099976 -6.5,-8 -6.5,-11.099976c0,-2.100037 4.200073,-2.200012 15.5,-0.300049zm49,15.5c1,3.400024 -1.199951,10.300049 -4.199951,12.700012c-4.200073,3.400024 -11,6.700012 -12.200073,6c-1.599976,-1 -1.299927,-10.299988 0.400024,-13.599976c1.700073,-3.299988 4.400024,-5.100037 9.5,-6.100037c5.5,-1.099976 5.800049,-1 6.5,1zm0.900024,68.800049c2.199951,8.899963 3.5,10.199951 7.800049,8c1.799927,-0.900024 4.599976,-2.700012 6.199951,-3.900024c3.300049,-2.700012 2.5,-3.299988 9.900024,8.200012c2.299927,3.599976 4.900024,6.599976 5.799927,6.799988c0.900024,0.200012 4,-1.700012 7,-4.099976c9.200073,-7.400024 12.5,-8.300049 17.300049,-4.600037c3.300049,2.600037 5.099976,6 8.099976,15.599976c3.200073,10 3.800049,10.700073 7.900024,8.600098c3.599976,-1.900024 7.599976,-4.800049 16.5,-12c3.599976,-2.900085 7.300049,-5.300049 8.300049,-5.300049c1.399902,0 2.899902,2.200012 5.5,7.599976c3.399902,7.099976 3.5,8 3,14.700073c-0.800049,10.899902 -8.800049,37.099976 -22.5,74.199951c-11.700073,31.300049 -30.600098,69.199951 -43.400024,86.5c-12.300049,16.800049 -30.900024,35.699951 -43.900024,44.699951c-13.900024,9.600098 -29,15.700073 -42.900024,17.5c-3.699951,0.5 -3,-1.699951 6.5,-18.699951c11.5,-20.699951 14.800049,-27.900024 15.300049,-34.199951c0.5,-5.700073 0,-6.300049 -9.700073,-14.700073c-4.699951,-4 -9.899902,-15.799927 -16.599976,-37.5c-4.400024,-14.299927 -5.5,-19.199951 -5,-22c0.300049,-2 3.800049,-10.799927 7.700073,-19.599976c9,-20.400024 13.799927,-32.5 17.799927,-45.400024l3.200073,-10.299927l-2.100098,-4.800049c-1.299927,-2.900024 -2.099976,-7 -2.099976,-10.199951c0,-6.100098 3.700073,-32.300049 5,-35.400085c0.5,-1.399963 2.099976,-2.399963 4.599976,-2.899963c5.100098,-0.900024 8.100098,-2.5 15.5,-8.5c3.400024,-2.700012 6.5,-5 6.900024,-5c0.400024,0 1.5,3 2.400024,6.700012z"/>
  <rect stroke="#000000" id="svg_8" height="18.962958" width="1282.579181" y="1608.076822" x="226.589867" stroke-width="5" fill="#000000"/>
  <path id="svg_10" stroke-linecap="null" stroke-linejoin="null" stroke-dasharray="null" stroke-width="5" stroke="#000000" fill="#FF0000"/>
  <polygon strokeWidth="5" strokecolor="#000000" fill="#FF0000" edge="0" orient="x" sides="5" shape="regularPoly" id="svg_12" cy="1596.839506" cx="269.432099"/>
  <polygon strokeWidth="5" strokecolor="none" fill="#FF0000" edge="0" orient="x" sides="5" shape="regularPoly" id="svg_13" cy="1612.641975" cx="320"/>
  <line id="svg_21" y2="1679.782627" x2="845.037038" y1="1549.080932" x1="845.037038" stroke-linecap="null" stroke-linejoin="null" stroke-dasharray="null" stroke-width="13" stroke="#000000" fill="none"/>
  <line id="svg_23" y2="1679.74863" x2="1346.106957" y1="1549.046936" x1="1346.106957" stroke-linecap="null" stroke-linejoin="null" stroke-dasharray="null" stroke-width="13" stroke="#000000" fill="none"/>
  <line id="svg_24" y2="1679.74864" x2="326.320873" y1="1549.046945" x1="326.320873" stroke-linecap="null" stroke-linejoin="null" stroke-dasharray="null" stroke-width="13" stroke="#000000" fill="none"/>
  <text transform="matrix(10.934611320495605,0,0,6.833956241607666,-1248.346003741026,-613.1123387664557) " font-weight="bold" xml:space="preserve" text-anchor="middle" font-family="Monospace" font-size="24" id="svg_25" y="333.548096" x="125.293272" stroke-linecap="null" stroke-linejoin="null" stroke-dasharray="null" stroke-width="0" fill="#000000">T</text>
  <path id="svg_26" stroke="#000000" transform="rotate(90 1536.0013427734375,1617.5364990234377) " d="m1517.011353,1617.463867l18.989746,-29.921143l18.990234,29.921143l-9.494873,0l0,30.066528l-18.98999,0l0,-30.066528l-9.495117,0z" stroke-linecap="null" stroke-linejoin="null" stroke-dasharray="null" stroke-width="5" fill="#000000"/>
  <path fill="#000000" id="svg_2" d="m416,182.999969c-89.399994,69.400009 -194.300003,150.900024 -233.300003,181.100006l-70.699997,54.899994l0.200005,381.200043l0.299995,381.200012l233,180.400024l233,180.399902l0.299988,-371.699951c0.100037,-204.400024 0.100037,-538.600037 0,-742.600006l-0.299988,-371.000019l-162.5,126.099995zm146.799988,967.900055l-0.299988,352l-153.5,-114.5c-84.399994,-62.900024 -168.800003,-125.800049 -187.5,-139.800049c-18.699997,-13.900024 -50.099991,-37.299927 -69.800003,-52l-35.699997,-26.599976l0.200005,-370.200012l0.299995,-370.100006l223,-166.800018l223,-166.699989l0.299988,351.299995c0.100037,193.200043 0.100037,509.700043 0,703.400055z"/>
 </g>
</svg>